<svg xmlns="http://www.w3.org/2000/svg" width="45.485" height="37.78" viewBox="0 0 45.485 37.78">
  <g id="back" transform="translate(0 -41.674)">
    <g id="Grupo_215" data-name="Grupo 215" transform="translate(0 41.674)">
      <path id="Caminho_370" data-name="Caminho 370" d="M42.929,57l.071.016H12.563l9.568-9.589a2.513,2.513,0,0,0,0-3.533L20.642,42.4a2.49,2.49,0,0,0-3.515,0L.725,58.8a2.507,2.507,0,0,0,0,3.528l16.4,16.4a2.493,2.493,0,0,0,3.515,0l1.489-1.49a2.464,2.464,0,0,0,.726-1.757,2.39,2.39,0,0,0-.726-1.724l-9.676-9.643H42.963a2.578,2.578,0,0,0,2.523-2.552V59.456A2.528,2.528,0,0,0,42.929,57Z" transform="translate(0 -41.674)" fill="#fff"/>
    </g>
  </g>
</svg>
