<svg xmlns="http://www.w3.org/2000/svg" width="35" height="36" viewBox="0 0 35 36">
  <g id="Botao" transform="translate(-0.238 -0.07)">
    <g id="Elipse_38" data-name="Elipse 38" transform="translate(0.238 0.07)" fill="none" stroke="#fff" stroke-width="3">
      <ellipse cx="17.5" cy="18" rx="17.5" ry="18" stroke="none"/>
      <ellipse cx="17.5" cy="18" rx="16" ry="16.5" fill="none"/>
    </g>
    <g id="Formas" transform="translate(10.593 6.729)">
      <g id="União_5" data-name="União 5" transform="translate(14.584 22.643) rotate(180)" fill="none">
        <path d="M8.792,21.649l-7.8-7.8A3.384,3.384,0,0,1,0,11.321,3.384,3.384,0,0,1,.994,8.792l7.8-7.8a3.393,3.393,0,0,1,4.8,4.8L8.061,11.321l5.529,5.529a3.393,3.393,0,1,1-4.8,4.8Z" stroke="none"/>
        <path d="M 11.19104957580566 20.34309959411621 C 11.36009979248047 20.34309959411621 11.68527030944824 20.3015308380127 11.96364974975586 20.02315139770508 C 12.24262046813965 19.74419021606445 12.28427982330322 19.41886138916016 12.28427982330322 19.24975967407227 C 12.28427982330322 19.08084106445313 12.24269008636475 18.75590133666992 11.96356010437012 18.47694969177246 L 6.434730052947998 12.94748020172119 L 4.80856990814209 11.32114028930664 L 6.434820175170898 9.694880485534668 L 11.96420955657959 4.165500640869141 C 12.24269008636475 3.887200593948364 12.28427982330322 3.562260627746582 12.28427982330322 3.393340587615967 C 12.28427982330322 3.22424054145813 12.24262046813965 2.898910522460938 11.96364974975586 2.619950532913208 C 11.68527030944824 2.341570615768433 11.36009979248047 2.300000429153442 11.19104957580566 2.300000429153442 C 11.02200031280518 2.300000429153442 10.6968297958374 2.341570615768433 10.41845035552979 2.619950532913208 L 2.61995005607605 10.41845035552979 C 2.326420068740845 10.71197032928467 2.294039964675903 11.05520057678223 2.300849914550781 11.23368072509766 L 2.30420994758606 11.32147026062012 L 2.300849914550781 11.40927028656006 C 2.294029951095581 11.58780097961426 2.326420068740845 11.93113040924072 2.61995005607605 12.22465038299561 L 10.41845035552979 20.02315139770508 C 10.6968297958374 20.3015308380127 11.02200031280518 20.34309959411621 11.19104957580566 20.34309959411621 M 11.19104957580566 22.64310073852539 C 10.32277965545654 22.64310073852539 9.454500198364258 22.3119010925293 8.792099952697754 21.64949989318848 L 0.9936000108718872 13.85100078582764 C 0.2980499863624573 13.15545082092285 -0.03228000551462173 12.23280048370361 0.00252999528311193 11.3214807510376 C -0.03228000551462173 10.41029071807861 0.2980499863624573 9.487650871276855 0.9936000108718872 8.79210090637207 L 8.792099952697754 0.9936005473136902 C 9.454500198364258 0.3312005400657654 10.32277488708496 5.462646299747576e-07 11.19104957580566 5.462646299747576e-07 C 12.05932521820068 5.462646299747576e-07 12.92759990692139 0.3312005400657654 13.59000015258789 0.9936005473136902 C 14.91569995880127 2.319300651550293 14.91569995880127 4.467600345611572 13.59000015258789 5.792400360107422 L 8.061169624328613 11.3212308883667 L 13.59000015258789 16.85070037841797 C 14.91569995880127 18.17550086975098 14.91569995880127 20.32380104064941 13.59000015258789 21.64949989318848 C 12.92759990692139 22.3119010925293 12.05932998657227 22.64310073852539 11.19104957580566 22.64310073852539 Z" stroke="none" fill="#fff"/>
      </g>
    </g>
  </g>
</svg>
