<svg id="Layer_1" enable-background="new 0 0 512.058 512.058" height="512" viewBox="0 0 512.058 512.058" width="512" xmlns="http://www.w3.org/2000/svg"><path d="m460.051 117.396h-120.365v-62.764h-200.729v-24.632h16.382v-30h-62.764v30h16.382v398.727c-32.349 5.921-56.95 34.297-56.95 68.331v15h143.9v-15c0-34.033-24.601-62.41-56.95-68.331v-205.676h85.546v62.764h235.549l-50.911-84.21zm-297.104 364.662h-77.98c5.917-14.354 20.061-24.485 36.524-24.485h4.931c16.464-.001 30.608 10.13 36.525 24.485zm-23.99-397.426h170.729v108.419h-170.729zm140.083 138.419-24.538 18.08v-18.08zm127.818 32.764h-121.71l54.538-40.184v-68.236h67.172l-32.774 54.209z"/></svg>