<svg id="Capa_1" enable-background="new 0 0 509.759 509.759" height="512" viewBox="0 0 509.759 509.759" width="512" xmlns="http://www.w3.org/2000/svg"><path d="m361.379 0h-213c-24.813 0-45 20.187-45 45v419.759c0 24.813 20.187 45 45 45h213c24.813 0 45-20.187 45-45v-419.759c0-24.813-20.186-45-45-45zm15 464.759c0 8.271-6.729 15-15 15h-213c-8.271 0-15-6.729-15-15v-419.759c0-8.271 6.729-15 15-15h213c8.271 0 15 6.729 15 15z"/><path d="m317.212 246.244h-9.493v-16.846c0-29.136-23.704-52.84-52.84-52.84s-52.84 23.704-52.84 52.84v16.846h-9.494c-8.284 0-15 6.716-15 15v86.892c0 8.284 6.716 15 15 15h124.667c8.284 0 15-6.716 15-15v-86.892c0-8.284-6.715-15-15-15zm-85.172-16.846c0-12.594 10.246-22.84 22.84-22.84s22.84 10.246 22.84 22.84v16.846h-45.68zm70.172 103.738h-94.667v-56.892h94.667z"/><path d="m225.879 91.759h58c8.284 0 15-6.716 15-15s-6.716-15-15-15h-58c-8.284 0-15 6.716-15 15s6.716 15 15 15z"/></svg>