<svg id="undraw_online_discussion_5wgl" xmlns="http://www.w3.org/2000/svg" width="301.134" height="246.795" viewBox="0 0 301.134 246.795">
  <path id="Caminho_248" data-name="Caminho 248" d="M220.588,159.448l1.282,105.757,55.392,26.982L275.98,186.43Z" transform="translate(-151.551 -109.546)" fill="#f2f2f2"/>
  <path id="Caminho_249" data-name="Caminho 249" d="M75.943,132.454l-41.39,84.971,56.161,27.357L89.432,139.024Z" transform="translate(-23.739 -91)" fill="#f2f2f2"/>
  <path id="Caminho_250" data-name="Caminho 250" d="M716.789,394.329,605,339.875l1.282,105.757L675.4,479.3Z" transform="translate(-415.655 -233.505)" fill="#f2f2f2"/>
  <path id="Caminho_251" data-name="Caminho 251" d="M413.579,245.662l1.282,105.757L470.253,378.4l-1.282-105.757Z" transform="translate(-284.143 -168.778)" fill="#f2f2f2"/>
  <rect id="Retângulo_118" data-name="Retângulo 118" width="6.961" height="8.95" transform="translate(247.507 81.658) rotate(-2.221)" fill="#710e7c"/>
  <path id="Caminho_252" data-name="Caminho 252" d="M810.9,410.922s-9.633-4.6-9.479-.628,9.71,6.59,9.71,6.59Z" transform="translate(-587.813 -298.212)" fill="#ffb9b9"/>
  <path id="Caminho_253" data-name="Caminho 253" d="M829.357,511.634s-4.545,11.123-6.224,19.15-4.236,19.073-.947,26.907,12.641,30.858,12.738,33.343-.8,5.007,1.186,4.93,12.8-3.482,13.241-4.992-3.69-5.33-3.69-5.33l-10.2-31.948L846.1,532.878l7.673,31.051,1.5,38.754s7.376-2.276,8.446-.328c0,0,3.3-4.607,3.724-6.613S865.89,555.5,865.89,555.5s6.77-43.553,1.3-43.341S840.322,499.266,829.357,511.634Z" transform="translate(-600.987 -365.292)" fill="#2f2e41"/>
  <path id="Caminho_254" data-name="Caminho 254" d="M852.989,778.895s-5.041,11.143-5.519,11.659-3.763,5.619-1.279,5.523,8.35-2.812,12.668-6.96,10.01-11.335,9.494-11.813a29.308,29.308,0,0,0-4.052-1.833Z" transform="translate(-617.942 -550.211)" fill="#2f2e41"/>
  <path id="Caminho_255" data-name="Caminho 255" d="M930.457,804.2s-.3,4.988-1.221,7.014-.8,5.007,1.683,4.911,8.9-1.341,8.9-1.341.381-3-.135-3.478-2.715-5.866-1.779-7.395S930.457,804.2,930.457,804.2Z" transform="translate(-675.267 -569.328)" fill="#2f2e41"/>
  <path id="Caminho_256" data-name="Caminho 256" d="M930.209,288.992s5.3,8.254,7.361,10.164-3.744,6.116-3.744,6.116l-10.4,1.4s.131-9.459-.4-10.434S930.209,288.992,930.209,288.992Z" transform="translate(-671.344 -215.984)" fill="#ffb9b9"/>
  <path id="Caminho_257" data-name="Caminho 257" d="M892.909,318.509s2.141,3.9,4.129,3.821,12.267-4.457,12.706-5.966,3.405,10.815,3.405,10.815L888,371.445l-6.136-4.24,2.973-25.99,2.442-14.027Z" transform="translate(-643.08 -234.702)" fill="#710e7c"/>
  <path id="Caminho_258" data-name="Caminho 258" d="M882.937,351.561a13.922,13.922,0,0,0-1.543,6.529c0,.1.008.2.016.3.238,4.6,1.932,9.917,2.54,13.784.441,2.774.316,4.8-1.308,5.275-3.936,1.148.574,1.968-14.655,7.037s-17.887.694-17.925-.3,2.157-8.543,1.641-9.02-7.222,6.251-9.247,5.335-.231-5.962-.231-5.962,4.564-10.626,4.468-13.111,6.913-14.2,6.913-14.2l4.768-31.036s1.833-4.052,4.3-4.645a6.106,6.106,0,0,1,4.51.82l-4.125,9.117L858.7,337.573l.728,5.943s5.061-10.646,8.385-14.755,10.41-13.839,10.41-13.839,1.654-5.582.406-7.251,5.21-1.924,7.964,4.936c1.46,3.636,3.829,9.057,5.314,14.1,1.323,4.472,1.948,8.652.637,11.042C890.544,341.4,885.506,346.2,882.937,351.561Z" transform="translate(-615.345 -228.137)" fill="#575a89"/>
  <path id="Caminho_259" data-name="Caminho 259" d="M979.141,379.015c-2,3.65-7.042,8.449-9.611,13.808-.671-2.417-1.49-4.918-1.49-4.918s-3.139-16.8,6.147-21.137a6.215,6.215,0,0,1,4.316,1.206C979.827,372.445,980.453,376.625,979.141,379.015Z" transform="translate(-701.938 -269.399)" opacity="0.1"/>
  <path id="Caminho_260" data-name="Caminho 260" d="M843.1,402.583l-7.872,2.3-10.931.424-1.124,9.5,17.964,1.294S845.62,403.48,843.1,402.583Z" transform="translate(-602.758 -294.025)" fill="#575a89"/>
  <path id="Caminho_261" data-name="Caminho 261" d="M909.235,504.623s-10.532,1.747-8.128,4.917,11.734-.163,11.734-.163Z" transform="translate(-656.058 -364.13)" fill="#ffb9b9"/>
  <path id="Caminho_262" data-name="Caminho 262" d="M935.036,471.9c.238,4.6,1.932,9.917,2.54,13.784-3.355,3.175-6.546,5.976-7.748,6.023-2.484.1-6.478-.246-7.95.308s-2.334-8.866-2.334-8.866a8.148,8.148,0,0,1,4.795-4.664A54.54,54.54,0,0,0,935.036,471.9Z" transform="translate(-668.97 -341.646)" opacity="0.1"/>
  <path id="Caminho_263" data-name="Caminho 263" d="M940.85,357.231s8.408-1.321,7.954,12.629.886,22.855-2.5,25.474-14.366,14.49-16.85,14.586-6.478-.246-7.949.308-2.334-8.866-2.334-8.866a8.148,8.148,0,0,1,4.8-4.664c3.917-1.645,13.145-7.476,13.068-9.464s-2.334-8.866-2.334-8.866S931.564,361.572,940.85,357.231Z" transform="translate(-668.716 -262.844)" fill="#575a89"/>
  <circle id="Elipse_46" data-name="Elipse 46" cx="10.939" cy="10.939" r="10.939" transform="translate(240.512 63.352)" fill="#ffb9b9"/>
  <path id="Caminho_264" data-name="Caminho 264" d="M886.029,238.144a2.111,2.111,0,0,1-.92.462.656.656,0,0,1-.761-.527,2.727,2.727,0,0,1-1.044,1.339c-.511.266-1.3.043-1.375-.528a2.412,2.412,0,0,1-.555,1.172.831.831,0,0,1-1.169.039,30.013,30.013,0,0,1,.156,3.722,4.739,4.739,0,0,0,1.339,3.373c1.368,1.19,3.424.9,5.223.671a1.586,1.586,0,0,1,.819.045c.674.287.643,1.225.652,1.957a5.437,5.437,0,0,0,4.761,5.163,2.726,2.726,0,0,0,2.026-.494c.511-.433.772-1.139,1.357-1.464.952-.529,2.107.242,2.8,1.08s1.382,1.868,2.46,2.022c1.426.2,2.512-1.251,3.045-2.589a15.092,15.092,0,0,0-.3-11.727C901.57,235.367,891.4,234.341,886.029,238.144Z" transform="translate(-641.944 -179.533)" fill="#2f2e41"/>
  <circle id="Elipse_47" data-name="Elipse 47" cx="22.534" cy="22.534" r="22.534" transform="translate(163.664 22.555)" fill="#710e7c"/>
  <path id="Caminho_265" data-name="Caminho 265" d="M623.149,94.593c5.192,5.325,13.167,5.97,13.167,5.97s-.442-7.989-5.634-13.315-13.167-5.97-13.167-5.97S617.957,89.268,623.149,94.593Z" transform="translate(-461.466 -73.278)" fill="#3f3d56"/>
  <path id="Caminho_266" data-name="Caminho 266" d="M609.532,113.8c7.181,1.937,11.632,8.586,11.632,8.586s-7.191,3.509-14.372,1.572-11.632-8.586-11.632-8.586S602.352,111.859,609.532,113.8Z" transform="translate(-446.108 -95.218)" fill="#710e7c"/>
  <path id="Caminho_267" data-name="Caminho 267" d="M663.6,69.216c.048,7.437,5.347,13.433,5.347,13.433s5.222-6.063,5.174-13.5-5.347-13.433-5.347-13.433S663.557,61.779,663.6,69.216Z" transform="translate(-493.131 -55.716)" fill="#3f3d56"/>
  <path id="Caminho_268" data-name="Caminho 268" d="M648,77.017c3.831,6.375,2.427,14.252,2.427,14.252s-7.614-2.459-11.445-8.834-2.427-14.252-2.427-14.252S644.173,70.642,648,77.017Z" transform="translate(-474.377 -64.282)" fill="#710e7c"/>
  <circle id="Elipse_48" data-name="Elipse 48" cx="11.58" cy="11.58" r="11.58" transform="translate(172.579 31.779)" fill="#f2f2f2"/>
  <circle id="Elipse_49" data-name="Elipse 49" cx="3.756" cy="3.756" r="3.756" transform="translate(174.984 43.186)" fill="#3f3d56"/>
  <circle id="Elipse_50" data-name="Elipse 50" cx="22.534" cy="22.534" r="22.534" transform="translate(42.563 199.958)" fill="#710e7c"/>
  <path id="Caminho_269" data-name="Caminho 269" d="M294.18,630.587c1.942,7.179,8.594,11.626,8.594,11.626s3.5-7.194,1.561-14.373-8.594-11.626-8.594-11.626S292.238,623.407,294.18,630.587Z" transform="translate(-238.921 -440.797)" fill="#3f3d56"/>
  <path id="Caminho_270" data-name="Caminho 270" d="M275.348,644.863c5.329,5.188,5.98,13.163,5.98,13.163s-7.99-.436-13.319-5.624-5.98-13.163-5.98-13.163S270.019,639.675,275.348,644.863Z" transform="translate(-217.236 -456.616)" fill="#710e7c"/>
  <path id="Caminho_271" data-name="Caminho 271" d="M327.158,633.647c-3.579,6.519-1.87,14.336-1.87,14.336s7.513-2.753,11.092-9.273,1.87-14.336,1.87-14.336S330.737,627.127,327.158,633.647Z" transform="translate(-260.416 -446.403)" fill="#3f3d56"/>
  <path id="Caminho_272" data-name="Caminho 272" d="M319.045,627.6c.242,7.433-4.819,13.631-4.819,13.631s-5.454-5.855-5.7-13.288,4.819-13.631,4.819-13.631S318.8,620.17,319.045,627.6Z" transform="translate(-249.177 -439.493)" fill="#710e7c"/>
  <circle id="Elipse_51" data-name="Elipse 51" cx="11.58" cy="11.58" r="11.58" transform="translate(52.578 208.408)" fill="#f2f2f2"/>
  <circle id="Elipse_52" data-name="Elipse 52" cx="3.756" cy="3.756" r="3.756" transform="translate(64.158 210.599)" fill="#3f3d56"/>
  <rect id="Retângulo_119" data-name="Retângulo 119" width="117.363" height="0.626" transform="translate(3.13 244.712)" fill="#2f2e41"/>
  <rect id="Retângulo_120" data-name="Retângulo 120" width="117.363" height="0.626" transform="translate(176.2 245.964)" fill="#2f2e41"/>
  <path id="Caminho_273" data-name="Caminho 273" d="M185.432,685.2l-.556-.287c7.224-13.966,3.361-32.1-1.151-44.858a137.489,137.489,0,0,0-11.667-24.623l.529-.334a138.186,138.186,0,0,1,11.728,24.748C188.869,652.714,192.759,671.032,185.432,685.2Z" transform="translate(-155.423 -440.027)" fill="#2f2e41"/>
  <rect id="Retângulo_121" data-name="Retângulo 121" width="22.59" height="0.626" transform="translate(31.305 197.4) rotate(-79.645)" fill="#2f2e41"/>
  <rect id="Retângulo_122" data-name="Retângulo 122" width="0.626" height="30.781" transform="matrix(0.732, -0.681, 0.681, 0.732, 7.908, 194.538)" fill="#2f2e41"/>
  <rect id="Retângulo_123" data-name="Retângulo 123" width="18.155" height="0.626" transform="matrix(0.586, -0.81, 0.81, 0.586, 35.427, 233.578)" fill="#2f2e41"/>
  <circle id="Elipse_53" data-name="Elipse 53" cx="3.13" cy="3.13" r="3.13" transform="translate(34.113 163.028)" fill="#ff9e24"/>
  <circle id="Elipse_54" data-name="Elipse 54" cx="3.13" cy="3.13" r="3.13" transform="translate(0 187.127)" fill="#3f3d56"/>
  <circle id="Elipse_55" data-name="Elipse 55" cx="3.13" cy="3.13" r="3.13" transform="translate(13.771 190.256)" fill="#3f3d56"/>
  <circle id="Elipse_56" data-name="Elipse 56" cx="3.13" cy="3.13" r="3.13" transform="translate(7.511 202.462)" fill="#ff9e24"/>
  <circle id="Elipse_57" data-name="Elipse 57" cx="3.13" cy="3.13" r="3.13" transform="translate(46.632 210.286)" fill="#3f3d56"/>
  <circle id="Elipse_58" data-name="Elipse 58" cx="3.13" cy="3.13" r="3.13" transform="translate(36.304 213.729)" fill="#3f3d56"/>
  <circle id="Elipse_59" data-name="Elipse 59" cx="3.13" cy="3.13" r="3.13" transform="translate(43.502 223.744)" fill="#3f3d56"/>
  <circle id="Elipse_60" data-name="Elipse 60" cx="3.13" cy="3.13" r="3.13" transform="translate(10.641 166.784)" fill="#3f3d56"/>
  <rect id="Retângulo_124" data-name="Retângulo 124" width="150.85" height="90.447" transform="translate(64.032 56.096)" fill="#3f3d56"/>
  <circle id="Elipse_61" data-name="Elipse 61" cx="1.565" cy="1.565" r="1.565" transform="translate(68.414 57.974)" fill="#710e7c"/>
  <circle id="Elipse_62" data-name="Elipse 62" cx="1.565" cy="1.565" r="1.565" transform="translate(74.047 57.974)" fill="#ff9e24"/>
  <circle id="Elipse_63" data-name="Elipse 63" cx="1.565" cy="1.565" r="1.565" transform="translate(79.68 57.974)" fill="#710e7c"/>
  <rect id="Retângulo_125" data-name="Retângulo 125" width="150.724" height="0.626" transform="translate(64.158 63.038)" fill="#2f2e41"/>
  <path id="Caminho_274" data-name="Caminho 274" d="M372.923,260.24v28.167H331.978l-7.564,9.076.864-9.076H321.6V260.24Z" transform="translate(-220.948 -178.793)" fill="#710e7c"/>
  <rect id="Retângulo_126" data-name="Retângulo 126" width="18.465" height="18.465" transform="translate(133.511 91.148)" opacity="0.1"/>
  <path id="Caminho_275" data-name="Caminho 275" d="M439.6,304.24h51.327v28.167h-3.681l.864,9.076-7.563-9.076H439.6Z" transform="translate(-302.018 -209.023)" fill="#ff9e24"/>
  <ellipse id="Elipse_64" data-name="Elipse 64" cx="11.267" cy="1.099" rx="11.267" ry="1.099" transform="translate(92.512 121.033)" opacity="0.1"/>
  <ellipse id="Elipse_65" data-name="Elipse 65" cx="12.832" cy="1.252" rx="12.832" ry="1.252" transform="translate(173.257 135.59)" opacity="0.1"/>
</svg>
